<mxfile host="Electron" modified="2023-10-23T13:42:28.294Z" agent="Mozilla/5.0 (Macintosh; Intel Mac OS X 10_15_7) AppleWebKit/537.36 (KHTML, like Gecko) draw.io/22.0.3 Chrome/114.0.5735.289 Electron/25.8.4 Safari/537.36" etag="g0gb9RnUyw50gMBGEwz9" version="22.0.3" type="device">
  <diagram name="Page-1" id="VCU2_7XY7YOSpMuFFgP9">
    <mxGraphModel dx="2803" dy="2102" grid="1" gridSize="10" guides="1" tooltips="1" connect="1" arrows="1" fold="1" page="0" pageScale="1" pageWidth="1169" pageHeight="827" math="0" shadow="0">
      <root>
        <mxCell id="0" />
        <mxCell id="1" parent="0" />
        <mxCell id="p8tfiG4p6Vh0YpFKXhgD-1" value="" style="rounded=1;whiteSpace=wrap;html=1;fontSize=16;fillColor=none;dashed=1;dashPattern=12 12;" parent="1" vertex="1">
          <mxGeometry x="-1361" y="-740" width="880" height="130" as="geometry" />
        </mxCell>
        <mxCell id="80YUNRsU_wij_iDbftCs-48" value="" style="rounded=1;whiteSpace=wrap;html=1;fontSize=16;fillColor=none;dashed=1;dashPattern=12 12;" parent="1" vertex="1">
          <mxGeometry x="-1360" y="-520" width="880" height="387" as="geometry" />
        </mxCell>
        <mxCell id="80YUNRsU_wij_iDbftCs-2" value="" style="rounded=1;whiteSpace=wrap;html=1;fontSize=16;fillColor=none;dashed=1;dashPattern=12 12;" parent="1" vertex="1">
          <mxGeometry x="-1360" y="-86" width="870" height="330" as="geometry" />
        </mxCell>
        <UserObject label="&lt;i&gt;&lt;font color=&quot;#000000&quot;&gt;Signature 456&lt;/font&gt;&lt;/i&gt;" id="80YUNRsU_wij_iDbftCs-3">
          <mxCell style="ellipse;whiteSpace=wrap;html=1;fontSize=16;fillColor=none;strokeWidth=2;strokeColor=#336600;" parent="1" vertex="1">
            <mxGeometry x="-984" y="28.389999999999986" width="147" height="39.22" as="geometry" />
          </mxCell>
        </UserObject>
        <mxCell id="80YUNRsU_wij_iDbftCs-4" value="" style="group" parent="1" vertex="1" connectable="0">
          <mxGeometry x="-1293" y="-32" width="752" height="243" as="geometry" />
        </mxCell>
        <UserObject label="&lt;i&gt;&lt;font color=&quot;#000000&quot;&gt;Example University Public Key 7&amp;nbsp;&lt;/font&gt;&lt;/i&gt;" id="80YUNRsU_wij_iDbftCs-5">
          <mxCell style="ellipse;whiteSpace=wrap;html=1;fontSize=16;fillColor=none;strokeWidth=2;strokeColor=#336600;" parent="80YUNRsU_wij_iDbftCs-4" vertex="1">
            <mxGeometry x="302.5" y="183" width="160" height="60" as="geometry" />
          </mxCell>
        </UserObject>
        <UserObject label="&lt;i&gt;&lt;font color=&quot;#000000&quot;&gt;2022-06-18T21:19.10Z&lt;/font&gt;&lt;/i&gt;" id="80YUNRsU_wij_iDbftCs-6">
          <mxCell style="rounded=0;whiteSpace=wrap;html=1;fontSize=16;fillColor=none;strokeWidth=2;" parent="80YUNRsU_wij_iDbftCs-4" vertex="1">
            <mxGeometry y="120" width="190" height="40" as="geometry" />
          </mxCell>
        </UserObject>
        <UserObject label="&lt;i&gt;&lt;font color=&quot;#000000&quot;&gt;Data Integrity Proof&lt;/font&gt;&lt;/i&gt;" id="80YUNRsU_wij_iDbftCs-7">
          <mxCell style="ellipse;whiteSpace=wrap;html=1;fontSize=16;fillColor=none;strokeWidth=2;strokeColor=#336600;shadow=0;perimeterSpacing=3;" parent="80YUNRsU_wij_iDbftCs-4" vertex="1">
            <mxGeometry x="5" width="180" height="50" as="geometry" />
          </mxCell>
        </UserObject>
        <UserObject label="&lt;i&gt;&lt;font color=&quot;#000000&quot;&gt;34dj239dsj328&lt;/font&gt;&lt;/i&gt;" id="80YUNRsU_wij_iDbftCs-8">
          <mxCell style="rounded=0;whiteSpace=wrap;html=1;fontSize=16;fillColor=none;strokeWidth=2;" parent="80YUNRsU_wij_iDbftCs-4" vertex="1">
            <mxGeometry x="602" y="4" width="140" height="40" as="geometry" />
          </mxCell>
        </UserObject>
        <UserObject label="&lt;i&gt;&lt;font color=&quot;#000000&quot;&gt;zBavE110â€¦3JT2pq&lt;/font&gt;&lt;/i&gt;" id="80YUNRsU_wij_iDbftCs-9">
          <mxCell style="rounded=0;whiteSpace=wrap;html=1;fontSize=16;fillColor=none;strokeWidth=2;" parent="80YUNRsU_wij_iDbftCs-4" vertex="1">
            <mxGeometry x="592" y="116" width="160" height="40" as="geometry" />
          </mxCell>
        </UserObject>
        <mxCell id="80YUNRsU_wij_iDbftCs-10" value="" style="endArrow=classic;html=1;rounded=0;fontSize=12;startSize=8;endSize=8;curved=1;entryX=0.5;entryY=0;entryDx=0;entryDy=0;exitX=0.5;exitY=1;exitDx=0;exitDy=0;strokeWidth=2;fontStyle=2" parent="1" source="80YUNRsU_wij_iDbftCs-3" target="80YUNRsU_wij_iDbftCs-5" edge="1">
          <mxGeometry width="50" height="50" relative="1" as="geometry">
            <mxPoint x="-923" y="102" as="sourcePoint" />
            <mxPoint x="-1045" y="33" as="targetPoint" />
          </mxGeometry>
        </mxCell>
        <mxCell id="80YUNRsU_wij_iDbftCs-11" value="&amp;nbsp;type&amp;nbsp;" style="edgeLabel;html=1;align=center;verticalAlign=middle;resizable=0;points=[];fontSize=16;" parent="80YUNRsU_wij_iDbftCs-10" vertex="1" connectable="0">
          <mxGeometry x="0.1345" y="-2" relative="1" as="geometry">
            <mxPoint as="offset" />
          </mxGeometry>
        </mxCell>
        <mxCell id="80YUNRsU_wij_iDbftCs-12" value="verificationMethod" style="edgeLabel;html=1;align=center;verticalAlign=middle;resizable=0;points=[];fontSize=16;" parent="80YUNRsU_wij_iDbftCs-10" vertex="1" connectable="0">
          <mxGeometry x="0.1126" y="4" relative="1" as="geometry">
            <mxPoint as="offset" />
          </mxGeometry>
        </mxCell>
        <mxCell id="80YUNRsU_wij_iDbftCs-13" value="" style="endArrow=classic;html=1;rounded=0;fontSize=12;startSize=8;endSize=8;curved=1;exitX=0;exitY=1;exitDx=0;exitDy=0;entryX=1;entryY=0.5;entryDx=0;entryDy=0;strokeWidth=2;fontStyle=2" parent="1" source="80YUNRsU_wij_iDbftCs-3" target="80YUNRsU_wij_iDbftCs-6" edge="1">
          <mxGeometry width="50" height="50" relative="1" as="geometry">
            <mxPoint x="-945" y="41" as="sourcePoint" />
            <mxPoint x="-1075" y="3" as="targetPoint" />
            <Array as="points">
              <mxPoint x="-1013" y="102" />
            </Array>
          </mxGeometry>
        </mxCell>
        <mxCell id="80YUNRsU_wij_iDbftCs-14" value="&amp;nbsp;created" style="edgeLabel;html=1;align=center;verticalAlign=middle;resizable=0;points=[];fontSize=16;" parent="80YUNRsU_wij_iDbftCs-13" vertex="1" connectable="0">
          <mxGeometry x="0.1345" y="-2" relative="1" as="geometry">
            <mxPoint as="offset" />
          </mxGeometry>
        </mxCell>
        <mxCell id="80YUNRsU_wij_iDbftCs-15" value="" style="endArrow=classic;html=1;rounded=0;fontSize=12;startSize=8;endSize=8;curved=1;exitX=0;exitY=0;exitDx=0;exitDy=0;entryX=1;entryY=0.5;entryDx=0;entryDy=0;strokeWidth=2;fontStyle=2" parent="1" source="80YUNRsU_wij_iDbftCs-3" target="80YUNRsU_wij_iDbftCs-7" edge="1">
          <mxGeometry width="50" height="50" relative="1" as="geometry">
            <mxPoint x="-1173" y="-188" as="sourcePoint" />
            <mxPoint x="-1123" y="-238" as="targetPoint" />
            <Array as="points">
              <mxPoint x="-1003" y="2" />
            </Array>
          </mxGeometry>
        </mxCell>
        <mxCell id="80YUNRsU_wij_iDbftCs-16" value="&amp;nbsp;type&amp;nbsp;" style="edgeLabel;html=1;align=center;verticalAlign=middle;resizable=0;points=[];fontSize=16;" parent="80YUNRsU_wij_iDbftCs-15" vertex="1" connectable="0">
          <mxGeometry x="0.1345" y="-2" relative="1" as="geometry">
            <mxPoint as="offset" />
          </mxGeometry>
        </mxCell>
        <mxCell id="80YUNRsU_wij_iDbftCs-17" value="" style="endArrow=classic;html=1;rounded=0;fontSize=12;startSize=8;endSize=8;curved=1;exitX=1;exitY=0;exitDx=0;exitDy=0;entryX=0;entryY=0.5;entryDx=0;entryDy=0;strokeWidth=2;fontStyle=2" parent="1" source="80YUNRsU_wij_iDbftCs-3" target="80YUNRsU_wij_iDbftCs-8" edge="1">
          <mxGeometry width="50" height="50" relative="1" as="geometry">
            <mxPoint x="-935" y="51" as="sourcePoint" />
            <mxPoint x="-723" y="-8" as="targetPoint" />
            <Array as="points">
              <mxPoint x="-803" y="2" />
            </Array>
          </mxGeometry>
        </mxCell>
        <mxCell id="80YUNRsU_wij_iDbftCs-18" value="nonce&amp;nbsp;" style="edgeLabel;html=1;align=center;verticalAlign=middle;resizable=0;points=[];fontSize=16;" parent="80YUNRsU_wij_iDbftCs-17" vertex="1" connectable="0">
          <mxGeometry x="0.1345" y="-2" relative="1" as="geometry">
            <mxPoint as="offset" />
          </mxGeometry>
        </mxCell>
        <mxCell id="80YUNRsU_wij_iDbftCs-19" value="" style="endArrow=classic;html=1;rounded=0;fontSize=12;startSize=8;endSize=8;curved=1;exitX=1;exitY=1;exitDx=0;exitDy=0;entryX=0;entryY=0.5;entryDx=0;entryDy=0;strokeWidth=2;fontStyle=2" parent="1" source="80YUNRsU_wij_iDbftCs-3" target="80YUNRsU_wij_iDbftCs-9" edge="1">
          <mxGeometry width="50" height="50" relative="1" as="geometry">
            <mxPoint x="-925" y="61" as="sourcePoint" />
            <mxPoint x="-1055" y="23" as="targetPoint" />
            <Array as="points">
              <mxPoint x="-803" y="102" />
            </Array>
          </mxGeometry>
        </mxCell>
        <mxCell id="80YUNRsU_wij_iDbftCs-20" value="proofValue" style="edgeLabel;html=1;align=center;verticalAlign=middle;resizable=0;points=[];fontSize=16;" parent="80YUNRsU_wij_iDbftCs-19" vertex="1" connectable="0">
          <mxGeometry x="0.1345" y="-2" relative="1" as="geometry">
            <mxPoint as="offset" />
          </mxGeometry>
        </mxCell>
        <mxCell id="80YUNRsU_wij_iDbftCs-21" value="&lt;i&gt;&lt;font style=&quot;font-size: 13px;&quot;&gt;verifiable credential proof graph&lt;br&gt;(a named graph)&lt;br&gt;&lt;/font&gt;&lt;/i&gt;" style="text;html=1;strokeColor=none;fillColor=none;align=center;verticalAlign=middle;whiteSpace=wrap;rounded=0;fontSize=16;" parent="1" vertex="1">
          <mxGeometry x="-783" y="-81.5" width="313" height="30" as="geometry" />
        </mxCell>
        <mxCell id="80YUNRsU_wij_iDbftCs-45" value="" style="endArrow=classic;html=1;rounded=0;fontSize=12;startSize=8;endSize=8;curved=1;strokeWidth=2;exitX=0.5;exitY=1;exitDx=0;exitDy=0;entryX=0.525;entryY=-0.003;entryDx=0;entryDy=0;entryPerimeter=0;" parent="1" source="80YUNRsU_wij_iDbftCs-30" target="80YUNRsU_wij_iDbftCs-2" edge="1">
          <mxGeometry width="50" height="50" relative="1" as="geometry">
            <mxPoint x="-913" y="-72" as="sourcePoint" />
            <mxPoint x="-863" y="-122" as="targetPoint" />
          </mxGeometry>
        </mxCell>
        <mxCell id="80YUNRsU_wij_iDbftCs-46" value="proof" style="edgeLabel;html=1;align=center;verticalAlign=middle;resizable=0;points=[];fontSize=16;" parent="80YUNRsU_wij_iDbftCs-45" vertex="1" connectable="0">
          <mxGeometry x="-0.1786" y="-1" relative="1" as="geometry">
            <mxPoint as="offset" />
          </mxGeometry>
        </mxCell>
        <mxCell id="80YUNRsU_wij_iDbftCs-25" value="&lt;i style=&quot;border-color: var(--border-color); color: rgb(0, 0, 0); font-family: Helvetica; font-size: 16px; font-variant-ligatures: normal; font-variant-caps: normal; font-weight: 400; letter-spacing: normal; orphans: 2; text-indent: 0px; text-transform: none; widows: 2; word-spacing: 0px; -webkit-text-stroke-width: 0px; background-color: rgb(251, 251, 251); text-decoration-thickness: initial; text-decoration-style: initial; text-decoration-color: initial;&quot;&gt;&lt;font style=&quot;border-color: var(--border-color); font-size: 13px;&quot;&gt;verifiable credential graph&lt;br&gt;(a named graph)&lt;br&gt;&lt;/font&gt;&lt;/i&gt;" style="text;whiteSpace=wrap;html=1;fontSize=16;align=center;rotation=0;" parent="1" vertex="1">
          <mxGeometry x="-693.5000000000001" y="-525" width="166" height="30" as="geometry" />
        </mxCell>
        <UserObject label="&lt;i&gt;&lt;font color=&quot;#000000&quot;&gt;Presentation ABC&lt;/font&gt;&lt;/i&gt;" id="80YUNRsU_wij_iDbftCs-68">
          <mxCell style="ellipse;whiteSpace=wrap;html=1;fontSize=16;fillColor=none;strokeWidth=2;strokeColor=#336600;" parent="1" vertex="1">
            <mxGeometry x="-979" y="-684.61" width="147" height="39.22" as="geometry" />
          </mxCell>
        </UserObject>
        <UserObject label="&lt;i&gt;&lt;font color=&quot;#000000&quot;&gt;VerifiablePresentation&lt;/font&gt;&lt;/i&gt;" id="80YUNRsU_wij_iDbftCs-69">
          <mxCell style="ellipse;whiteSpace=wrap;html=1;fontSize=16;fillColor=none;strokeWidth=2;strokeColor=#336600;" parent="1" vertex="1">
            <mxGeometry x="-1330" y="-690" width="180" height="50" as="geometry" />
          </mxCell>
        </UserObject>
        <UserObject label="&lt;i&gt;&lt;font color=&quot;#000000&quot;&gt;DoNotArchive&lt;/font&gt;&lt;/i&gt;" id="80YUNRsU_wij_iDbftCs-70">
          <mxCell style="ellipse;whiteSpace=wrap;html=1;fontSize=16;fillColor=none;strokeWidth=2;strokeColor=#336600;" parent="1" vertex="1">
            <mxGeometry x="-659" y="-684.61" width="147" height="39.22" as="geometry" />
          </mxCell>
        </UserObject>
        <mxCell id="80YUNRsU_wij_iDbftCs-71" style="edgeStyle=none;curved=1;rounded=0;orthogonalLoop=1;jettySize=auto;html=1;exitX=1;exitY=0.5;exitDx=0;exitDy=0;entryX=0;entryY=0.5;entryDx=0;entryDy=0;fontSize=12;startSize=8;endSize=8;strokeWidth=2;" parent="1" source="80YUNRsU_wij_iDbftCs-68" target="80YUNRsU_wij_iDbftCs-70" edge="1">
          <mxGeometry relative="1" as="geometry" />
        </mxCell>
        <mxCell id="80YUNRsU_wij_iDbftCs-73" value="&amp;nbsp;termsOfUse&amp;nbsp;" style="edgeLabel;html=1;align=center;verticalAlign=middle;resizable=0;points=[];fontSize=16;" parent="80YUNRsU_wij_iDbftCs-71" vertex="1" connectable="0">
          <mxGeometry x="-0.0295" relative="1" as="geometry">
            <mxPoint as="offset" />
          </mxGeometry>
        </mxCell>
        <mxCell id="80YUNRsU_wij_iDbftCs-72" style="edgeStyle=none;curved=1;rounded=0;orthogonalLoop=1;jettySize=auto;html=1;exitX=0;exitY=0.5;exitDx=0;exitDy=0;entryX=1;entryY=0.5;entryDx=0;entryDy=0;fontSize=12;startSize=8;endSize=8;strokeWidth=2;" parent="1" source="80YUNRsU_wij_iDbftCs-68" target="80YUNRsU_wij_iDbftCs-69" edge="1">
          <mxGeometry relative="1" as="geometry">
            <mxPoint x="-1064" y="-574.61" as="sourcePoint" />
            <mxPoint x="-759" y="-574.61" as="targetPoint" />
          </mxGeometry>
        </mxCell>
        <mxCell id="80YUNRsU_wij_iDbftCs-74" value="&amp;nbsp;type&amp;nbsp;" style="edgeLabel;html=1;align=center;verticalAlign=middle;resizable=0;points=[];fontSize=16;" parent="80YUNRsU_wij_iDbftCs-72" vertex="1" connectable="0">
          <mxGeometry x="-0.1806" y="-3" relative="1" as="geometry">
            <mxPoint as="offset" />
          </mxGeometry>
        </mxCell>
        <mxCell id="80YUNRsU_wij_iDbftCs-77" style="edgeStyle=none;curved=1;rounded=0;orthogonalLoop=1;jettySize=auto;html=1;entryX=0.517;entryY=-0.003;entryDx=0;entryDy=0;fontSize=12;startSize=8;endSize=8;strokeWidth=2;entryPerimeter=0;exitX=0.5;exitY=1;exitDx=0;exitDy=0;" parent="1" source="80YUNRsU_wij_iDbftCs-68" target="80YUNRsU_wij_iDbftCs-48" edge="1">
          <mxGeometry relative="1" as="geometry">
            <mxPoint x="-880" y="-630" as="sourcePoint" />
            <mxPoint x="-1389.232" y="-498.452" as="targetPoint" />
          </mxGeometry>
        </mxCell>
        <mxCell id="80YUNRsU_wij_iDbftCs-78" value="verifiableCredential" style="edgeLabel;html=1;align=center;verticalAlign=middle;resizable=0;points=[];fontSize=16;" parent="80YUNRsU_wij_iDbftCs-77" vertex="1" connectable="0">
          <mxGeometry x="-0.0295" relative="1" as="geometry">
            <mxPoint as="offset" />
          </mxGeometry>
        </mxCell>
        <mxCell id="80YUNRsU_wij_iDbftCs-79" style="edgeStyle=none;curved=1;rounded=0;orthogonalLoop=1;jettySize=auto;html=1;exitX=1;exitY=1;exitDx=0;exitDy=0;entryX=1;entryY=0.5;entryDx=0;entryDy=0;fontSize=12;startSize=8;endSize=8;strokeWidth=2;" parent="1" source="80YUNRsU_wij_iDbftCs-68" target="80YUNRsU_wij_iDbftCs-49" edge="1">
          <mxGeometry relative="1" as="geometry">
            <mxPoint x="-62.73792094396697" y="-599.9964451771971" as="sourcePoint" />
            <mxPoint x="-130.0000000000001" y="341.3400000000002" as="targetPoint" />
            <Array as="points">
              <mxPoint x="-390" y="-610" />
              <mxPoint x="-380" y="-270" />
              <mxPoint x="-380" y="280" />
            </Array>
          </mxGeometry>
        </mxCell>
        <mxCell id="lX6lRBvpDmC6g2FffIeI-1" value="proof" style="edgeLabel;html=1;align=center;verticalAlign=middle;resizable=0;points=[];fontSize=16;" parent="80YUNRsU_wij_iDbftCs-79" vertex="1" connectable="0">
          <mxGeometry x="0.2604" relative="1" as="geometry">
            <mxPoint as="offset" />
          </mxGeometry>
        </mxCell>
        <UserObject label="&lt;i&gt;&lt;font color=&quot;#000000&quot;&gt;Signature 8910&lt;/font&gt;&lt;/i&gt;" id="80YUNRsU_wij_iDbftCs-50">
          <mxCell style="ellipse;whiteSpace=wrap;html=1;fontSize=16;fillColor=none;strokeWidth=2;strokeColor=#336600;" parent="1" vertex="1">
            <mxGeometry x="-983" y="391.89" width="147" height="39.22" as="geometry" />
          </mxCell>
        </UserObject>
        <mxCell id="80YUNRsU_wij_iDbftCs-57" value="" style="endArrow=classic;html=1;rounded=0;fontSize=12;startSize=8;endSize=8;curved=1;entryX=0.5;entryY=0;entryDx=0;entryDy=0;exitX=0.5;exitY=1;exitDx=0;exitDy=0;strokeWidth=2;fontStyle=2" parent="1" source="80YUNRsU_wij_iDbftCs-50" target="80YUNRsU_wij_iDbftCs-52" edge="1">
          <mxGeometry width="50" height="50" relative="1" as="geometry">
            <mxPoint x="-922" y="465.5" as="sourcePoint" />
            <mxPoint x="-1044" y="396.5" as="targetPoint" />
          </mxGeometry>
        </mxCell>
        <mxCell id="80YUNRsU_wij_iDbftCs-58" value="&amp;nbsp;type&amp;nbsp;" style="edgeLabel;html=1;align=center;verticalAlign=middle;resizable=0;points=[];fontSize=16;" parent="80YUNRsU_wij_iDbftCs-57" vertex="1" connectable="0">
          <mxGeometry x="0.1345" y="-2" relative="1" as="geometry">
            <mxPoint as="offset" />
          </mxGeometry>
        </mxCell>
        <mxCell id="80YUNRsU_wij_iDbftCs-59" value="verificationMethod" style="edgeLabel;html=1;align=center;verticalAlign=middle;resizable=0;points=[];fontSize=16;" parent="80YUNRsU_wij_iDbftCs-57" vertex="1" connectable="0">
          <mxGeometry x="0.1126" y="4" relative="1" as="geometry">
            <mxPoint as="offset" />
          </mxGeometry>
        </mxCell>
        <mxCell id="80YUNRsU_wij_iDbftCs-60" value="" style="endArrow=classic;html=1;rounded=0;fontSize=12;startSize=8;endSize=8;curved=1;exitX=0;exitY=1;exitDx=0;exitDy=0;entryX=1;entryY=0.5;entryDx=0;entryDy=0;strokeWidth=2;fontStyle=2" parent="1" source="80YUNRsU_wij_iDbftCs-50" target="80YUNRsU_wij_iDbftCs-53" edge="1">
          <mxGeometry width="50" height="50" relative="1" as="geometry">
            <mxPoint x="-944" y="404.5" as="sourcePoint" />
            <mxPoint x="-1074" y="366.5" as="targetPoint" />
            <Array as="points">
              <mxPoint x="-1012" y="465.5" />
            </Array>
          </mxGeometry>
        </mxCell>
        <mxCell id="80YUNRsU_wij_iDbftCs-61" value="&amp;nbsp;created" style="edgeLabel;html=1;align=center;verticalAlign=middle;resizable=0;points=[];fontSize=16;" parent="80YUNRsU_wij_iDbftCs-60" vertex="1" connectable="0">
          <mxGeometry x="0.1345" y="-2" relative="1" as="geometry">
            <mxPoint as="offset" />
          </mxGeometry>
        </mxCell>
        <mxCell id="80YUNRsU_wij_iDbftCs-62" value="" style="endArrow=classic;html=1;rounded=0;fontSize=12;startSize=8;endSize=8;curved=1;exitX=0;exitY=0;exitDx=0;exitDy=0;entryX=1;entryY=0.5;entryDx=0;entryDy=0;strokeWidth=2;fontStyle=2" parent="1" source="80YUNRsU_wij_iDbftCs-50" target="80YUNRsU_wij_iDbftCs-54" edge="1">
          <mxGeometry width="50" height="50" relative="1" as="geometry">
            <mxPoint x="-1172" y="175.5" as="sourcePoint" />
            <mxPoint x="-1122" y="125.5" as="targetPoint" />
            <Array as="points">
              <mxPoint x="-1002" y="365.5" />
            </Array>
          </mxGeometry>
        </mxCell>
        <mxCell id="80YUNRsU_wij_iDbftCs-63" value="&amp;nbsp;type&amp;nbsp;" style="edgeLabel;html=1;align=center;verticalAlign=middle;resizable=0;points=[];fontSize=16;" parent="80YUNRsU_wij_iDbftCs-62" vertex="1" connectable="0">
          <mxGeometry x="0.1345" y="-2" relative="1" as="geometry">
            <mxPoint as="offset" />
          </mxGeometry>
        </mxCell>
        <mxCell id="80YUNRsU_wij_iDbftCs-64" value="" style="endArrow=classic;html=1;rounded=0;fontSize=12;startSize=8;endSize=8;curved=1;exitX=1;exitY=0;exitDx=0;exitDy=0;entryX=0;entryY=0.5;entryDx=0;entryDy=0;strokeWidth=2;fontStyle=2" parent="1" source="80YUNRsU_wij_iDbftCs-50" target="80YUNRsU_wij_iDbftCs-55" edge="1">
          <mxGeometry width="50" height="50" relative="1" as="geometry">
            <mxPoint x="-934" y="414.5" as="sourcePoint" />
            <mxPoint x="-722" y="355.5" as="targetPoint" />
            <Array as="points">
              <mxPoint x="-802" y="365.5" />
            </Array>
          </mxGeometry>
        </mxCell>
        <mxCell id="80YUNRsU_wij_iDbftCs-65" value="nonce&amp;nbsp;" style="edgeLabel;html=1;align=center;verticalAlign=middle;resizable=0;points=[];fontSize=16;" parent="80YUNRsU_wij_iDbftCs-64" vertex="1" connectable="0">
          <mxGeometry x="0.1345" y="-2" relative="1" as="geometry">
            <mxPoint as="offset" />
          </mxGeometry>
        </mxCell>
        <mxCell id="80YUNRsU_wij_iDbftCs-66" value="" style="endArrow=classic;html=1;rounded=0;fontSize=12;startSize=8;endSize=8;curved=1;exitX=1;exitY=1;exitDx=0;exitDy=0;entryX=0;entryY=0.5;entryDx=0;entryDy=0;strokeWidth=2;fontStyle=2" parent="1" source="80YUNRsU_wij_iDbftCs-50" target="80YUNRsU_wij_iDbftCs-56" edge="1">
          <mxGeometry width="50" height="50" relative="1" as="geometry">
            <mxPoint x="-924" y="424.5" as="sourcePoint" />
            <mxPoint x="-1054" y="386.5" as="targetPoint" />
            <Array as="points">
              <mxPoint x="-802" y="465.5" />
            </Array>
          </mxGeometry>
        </mxCell>
        <mxCell id="80YUNRsU_wij_iDbftCs-67" value="proofValue" style="edgeLabel;html=1;align=center;verticalAlign=middle;resizable=0;points=[];fontSize=16;" parent="80YUNRsU_wij_iDbftCs-66" vertex="1" connectable="0">
          <mxGeometry x="0.1345" y="-2" relative="1" as="geometry">
            <mxPoint as="offset" />
          </mxGeometry>
        </mxCell>
        <mxCell id="80YUNRsU_wij_iDbftCs-49" value="" style="rounded=1;whiteSpace=wrap;html=1;fontSize=16;fillColor=none;dashed=1;dashPattern=12 12;" parent="1" vertex="1">
          <mxGeometry x="-1360" y="292" width="880" height="328" as="geometry" />
        </mxCell>
        <mxCell id="80YUNRsU_wij_iDbftCs-83" value="" style="group" parent="1" vertex="1" connectable="0">
          <mxGeometry x="-1293" y="343.5" width="752" height="243" as="geometry" />
        </mxCell>
        <mxCell id="80YUNRsU_wij_iDbftCs-51" value="" style="group" parent="80YUNRsU_wij_iDbftCs-83" vertex="1" connectable="0">
          <mxGeometry width="752" height="243" as="geometry" />
        </mxCell>
        <UserObject label="&lt;i&gt;&lt;font color=&quot;#000000&quot;&gt;Example University Public Key 11&amp;nbsp;&lt;/font&gt;&lt;/i&gt;" id="80YUNRsU_wij_iDbftCs-52">
          <mxCell style="ellipse;whiteSpace=wrap;html=1;fontSize=16;fillColor=none;strokeWidth=2;strokeColor=#336600;" parent="80YUNRsU_wij_iDbftCs-51" vertex="1">
            <mxGeometry x="302.5" y="183" width="160" height="60" as="geometry" />
          </mxCell>
        </UserObject>
        <UserObject label="&lt;i&gt;&lt;font color=&quot;#000000&quot;&gt;2023-01-15T12:43.56Z&lt;/font&gt;&lt;/i&gt;" id="80YUNRsU_wij_iDbftCs-53">
          <mxCell style="rounded=0;whiteSpace=wrap;html=1;fontSize=16;fillColor=none;strokeWidth=2;" parent="80YUNRsU_wij_iDbftCs-51" vertex="1">
            <mxGeometry y="120" width="190" height="40" as="geometry" />
          </mxCell>
        </UserObject>
        <UserObject label="&lt;i&gt;&lt;font color=&quot;#000000&quot;&gt;Data Integrity Proof&lt;/font&gt;&lt;/i&gt;" id="80YUNRsU_wij_iDbftCs-54">
          <mxCell style="ellipse;whiteSpace=wrap;html=1;fontSize=16;fillColor=none;strokeWidth=2;strokeColor=#336600;shadow=0;perimeterSpacing=3;" parent="80YUNRsU_wij_iDbftCs-51" vertex="1">
            <mxGeometry x="5" width="180" height="50" as="geometry" />
          </mxCell>
        </UserObject>
        <UserObject label="&lt;i&gt;&lt;font color=&quot;#000000&quot;&gt;d23848djsj3239&lt;/font&gt;&lt;/i&gt;" id="80YUNRsU_wij_iDbftCs-55">
          <mxCell style="rounded=0;whiteSpace=wrap;html=1;fontSize=16;fillColor=none;strokeWidth=2;" parent="80YUNRsU_wij_iDbftCs-51" vertex="1">
            <mxGeometry x="602" y="4" width="140" height="40" as="geometry" />
          </mxCell>
        </UserObject>
        <UserObject label="&lt;i&gt;&lt;font color=&quot;#000000&quot;&gt;zp2KaZâ€¦8Fj3eK&lt;/font&gt;&lt;/i&gt;" id="80YUNRsU_wij_iDbftCs-56">
          <mxCell style="rounded=0;whiteSpace=wrap;html=1;fontSize=16;fillColor=none;strokeWidth=2;" parent="80YUNRsU_wij_iDbftCs-51" vertex="1">
            <mxGeometry x="592" y="116" width="160" height="40" as="geometry" />
          </mxCell>
        </UserObject>
        <mxCell id="80YUNRsU_wij_iDbftCs-86" value="&lt;i&gt;&lt;font style=&quot;font-size: 13px;&quot;&gt;verifiable presentation proof graph&lt;br&gt;(a named graph)&lt;br&gt;&lt;/font&gt;&lt;/i&gt;" style="text;html=1;strokeColor=none;fillColor=none;align=center;verticalAlign=middle;whiteSpace=wrap;rounded=0;fontSize=16;" parent="1" vertex="1">
          <mxGeometry x="-774.5" y="294" width="280" height="30" as="geometry" />
        </mxCell>
        <UserObject label="&lt;i&gt;&lt;font color=&quot;#000000&quot;&gt;Example University&lt;/font&gt;&lt;/i&gt;" id="80YUNRsU_wij_iDbftCs-27">
          <mxCell style="ellipse;whiteSpace=wrap;html=1;fontSize=16;fillColor=none;strokeWidth=2;strokeColor=#336600;" parent="1" vertex="1">
            <mxGeometry x="-813" y="-222" width="160" height="39.22" as="geometry" />
          </mxCell>
        </UserObject>
        <UserObject label="&lt;i&gt;&lt;font color=&quot;#000000&quot;&gt;2010-01-01T10:37.24Z&lt;/font&gt;&lt;/i&gt;" id="80YUNRsU_wij_iDbftCs-28">
          <mxCell style="rounded=0;whiteSpace=wrap;html=1;fontSize=16;fillColor=none;strokeWidth=2;" parent="1" vertex="1">
            <mxGeometry x="-1320" y="-332" width="190" height="40" as="geometry" />
          </mxCell>
        </UserObject>
        <UserObject label="&lt;i&gt;&lt;font color=&quot;#000000&quot;&gt;Example Alumni Credential&lt;/font&gt;&lt;/i&gt;" id="80YUNRsU_wij_iDbftCs-29">
          <mxCell style="ellipse;whiteSpace=wrap;html=1;fontSize=16;fillColor=none;strokeWidth=2;strokeColor=#336600;" parent="1" vertex="1">
            <mxGeometry x="-992.5" y="-482" width="180" height="50" as="geometry" />
          </mxCell>
        </UserObject>
        <UserObject label="&lt;i&gt;&lt;font color=&quot;#000000&quot;&gt;Credential123&lt;/font&gt;&lt;/i&gt;" id="80YUNRsU_wij_iDbftCs-30">
          <mxCell style="ellipse;whiteSpace=wrap;html=1;fontSize=16;fillColor=none;strokeWidth=2;strokeColor=#336600;" parent="1" vertex="1">
            <mxGeometry x="-976" y="-331.61" width="147" height="39.22" as="geometry" />
          </mxCell>
        </UserObject>
        <UserObject label="&lt;i&gt;&lt;font color=&quot;#000000&quot;&gt;Pat&lt;/font&gt;&lt;/i&gt;" id="80YUNRsU_wij_iDbftCs-31">
          <mxCell style="ellipse;whiteSpace=wrap;html=1;fontSize=16;fillColor=none;strokeWidth=2;strokeColor=#336600;" parent="1" vertex="1">
            <mxGeometry x="-647" y="-331.61" width="147" height="39.22" as="geometry" />
          </mxCell>
        </UserObject>
        <mxCell id="80YUNRsU_wij_iDbftCs-32" style="edgeStyle=none;curved=1;rounded=0;orthogonalLoop=1;jettySize=auto;html=1;exitX=0;exitY=0.5;exitDx=0;exitDy=0;fontSize=12;startSize=8;endSize=8;" parent="1" source="80YUNRsU_wij_iDbftCs-28" target="80YUNRsU_wij_iDbftCs-28" edge="1">
          <mxGeometry relative="1" as="geometry" />
        </mxCell>
        <mxCell id="80YUNRsU_wij_iDbftCs-33" style="edgeStyle=none;curved=1;rounded=0;orthogonalLoop=1;jettySize=auto;html=1;exitX=1;exitY=0.5;exitDx=0;exitDy=0;fontSize=12;startSize=8;endSize=8;" parent="1" source="80YUNRsU_wij_iDbftCs-28" target="80YUNRsU_wij_iDbftCs-28" edge="1">
          <mxGeometry relative="1" as="geometry" />
        </mxCell>
        <mxCell id="80YUNRsU_wij_iDbftCs-34" value="" style="endArrow=classic;html=1;rounded=0;fontSize=12;startSize=8;endSize=8;curved=1;exitX=0.5;exitY=0;exitDx=0;exitDy=0;entryX=0.5;entryY=1;entryDx=0;entryDy=0;strokeWidth=2;" parent="1" source="80YUNRsU_wij_iDbftCs-30" target="80YUNRsU_wij_iDbftCs-29" edge="1">
          <mxGeometry width="50" height="50" relative="1" as="geometry">
            <mxPoint x="-1977" y="-812" as="sourcePoint" />
            <mxPoint x="-1927" y="-862" as="targetPoint" />
          </mxGeometry>
        </mxCell>
        <mxCell id="80YUNRsU_wij_iDbftCs-35" value="type" style="edgeLabel;html=1;align=center;verticalAlign=middle;resizable=0;points=[];fontSize=16;" parent="80YUNRsU_wij_iDbftCs-34" vertex="1" connectable="0">
          <mxGeometry x="-0.016" relative="1" as="geometry">
            <mxPoint as="offset" />
          </mxGeometry>
        </mxCell>
        <mxCell id="80YUNRsU_wij_iDbftCs-36" value="" style="endArrow=classic;html=1;rounded=0;fontSize=12;startSize=8;endSize=8;curved=1;exitX=0;exitY=0.5;exitDx=0;exitDy=0;entryX=1;entryY=0.5;entryDx=0;entryDy=0;strokeWidth=2;" parent="1" source="80YUNRsU_wij_iDbftCs-30" target="80YUNRsU_wij_iDbftCs-28" edge="1">
          <mxGeometry width="50" height="50" relative="1" as="geometry">
            <mxPoint x="-2107" y="-1071.6100000000001" as="sourcePoint" />
            <mxPoint x="-2107" y="-1171.6100000000001" as="targetPoint" />
          </mxGeometry>
        </mxCell>
        <mxCell id="80YUNRsU_wij_iDbftCs-37" value="type" style="edgeLabel;html=1;align=center;verticalAlign=middle;resizable=0;points=[];fontSize=16;" parent="80YUNRsU_wij_iDbftCs-36" vertex="1" connectable="0">
          <mxGeometry x="-0.016" relative="1" as="geometry">
            <mxPoint as="offset" />
          </mxGeometry>
        </mxCell>
        <mxCell id="80YUNRsU_wij_iDbftCs-38" value="validFrom&amp;nbsp;" style="edgeLabel;html=1;align=center;verticalAlign=middle;resizable=0;points=[];fontSize=16;" parent="80YUNRsU_wij_iDbftCs-36" vertex="1" connectable="0">
          <mxGeometry x="-0.0409" y="-1" relative="1" as="geometry">
            <mxPoint as="offset" />
          </mxGeometry>
        </mxCell>
        <mxCell id="80YUNRsU_wij_iDbftCs-39" value="" style="endArrow=classic;html=1;rounded=0;fontSize=12;startSize=8;endSize=8;curved=1;entryX=0.5;entryY=0;entryDx=0;entryDy=0;strokeWidth=2;exitX=1;exitY=1;exitDx=0;exitDy=0;" parent="1" source="80YUNRsU_wij_iDbftCs-30" target="80YUNRsU_wij_iDbftCs-27" edge="1">
          <mxGeometry width="50" height="50" relative="1" as="geometry">
            <mxPoint x="-1964" y="-980.39" as="sourcePoint" />
            <mxPoint x="-2077" y="-904.39" as="targetPoint" />
          </mxGeometry>
        </mxCell>
        <mxCell id="80YUNRsU_wij_iDbftCs-40" value="issuer" style="edgeLabel;html=1;align=center;verticalAlign=middle;resizable=0;points=[];fontSize=16;" parent="80YUNRsU_wij_iDbftCs-39" vertex="1" connectable="0">
          <mxGeometry x="-0.016" relative="1" as="geometry">
            <mxPoint as="offset" />
          </mxGeometry>
        </mxCell>
        <mxCell id="80YUNRsU_wij_iDbftCs-41" value="" style="endArrow=classic;html=1;rounded=0;fontSize=12;startSize=8;endSize=8;curved=1;entryX=0;entryY=0.5;entryDx=0;entryDy=0;strokeWidth=2;exitX=1;exitY=0.5;exitDx=0;exitDy=0;" parent="1" source="80YUNRsU_wij_iDbftCs-30" target="80YUNRsU_wij_iDbftCs-31" edge="1">
          <mxGeometry width="50" height="50" relative="1" as="geometry">
            <mxPoint x="-1907" y="-992" as="sourcePoint" />
            <mxPoint x="-2207" y="-1042" as="targetPoint" />
          </mxGeometry>
        </mxCell>
        <mxCell id="80YUNRsU_wij_iDbftCs-42" value="&amp;nbsp;credentialSubject&amp;nbsp;" style="edgeLabel;html=1;align=center;verticalAlign=middle;resizable=0;points=[];fontSize=16;" parent="80YUNRsU_wij_iDbftCs-41" vertex="1" connectable="0">
          <mxGeometry x="-0.016" relative="1" as="geometry">
            <mxPoint as="offset" />
          </mxGeometry>
        </mxCell>
        <mxCell id="80YUNRsU_wij_iDbftCs-43" value="" style="endArrow=classic;html=1;rounded=0;fontSize=12;startSize=8;endSize=8;curved=1;entryX=0.5;entryY=0;entryDx=0;entryDy=0;strokeWidth=2;exitX=0;exitY=1;exitDx=0;exitDy=0;" parent="1" source="80YUNRsU_wij_iDbftCs-31" target="80YUNRsU_wij_iDbftCs-27" edge="1">
          <mxGeometry width="50" height="50" relative="1" as="geometry">
            <mxPoint x="-1667" y="-882" as="sourcePoint" />
            <mxPoint x="-1475" y="-882" as="targetPoint" />
          </mxGeometry>
        </mxCell>
        <mxCell id="80YUNRsU_wij_iDbftCs-44" value="alumniOf" style="edgeLabel;html=1;align=center;verticalAlign=middle;resizable=0;points=[];fontSize=16;" parent="80YUNRsU_wij_iDbftCs-43" vertex="1" connectable="0">
          <mxGeometry x="-0.016" relative="1" as="geometry">
            <mxPoint as="offset" />
          </mxGeometry>
        </mxCell>
        <mxCell id="p8tfiG4p6Vh0YpFKXhgD-2" value="&lt;i style=&quot;border-color: var(--border-color); color: rgb(0, 0, 0); font-family: Helvetica; font-size: 16px; font-variant-ligatures: normal; font-variant-caps: normal; font-weight: 400; letter-spacing: normal; orphans: 2; text-indent: 0px; text-transform: none; widows: 2; word-spacing: 0px; -webkit-text-stroke-width: 0px; background-color: rgb(251, 251, 251); text-decoration-thickness: initial; text-decoration-style: initial; text-decoration-color: initial;&quot;&gt;&lt;font style=&quot;border-color: var(--border-color); font-size: 13px;&quot;&gt;verifiable presentation graph&lt;br&gt;(the default graph)&lt;br&gt;&lt;/font&gt;&lt;/i&gt;" style="text;whiteSpace=wrap;html=1;fontSize=16;align=center;rotation=0;" parent="1" vertex="1">
          <mxGeometry x="-700" y="-745" width="215.5" height="30" as="geometry" />
        </mxCell>
      </root>
    </mxGraphModel>
  </diagram>
</mxfile>
